<svg xmlns="http://www.w3.org/2000/svg" version="1.1" xmlns:xlink="http://www.w3.org/1999/xlink" xmlns:svgjs="http://svgjs.dev/svgjs" style="overflow: hidden; height: 85vh;" viewBox="0 0 1920 1080" class="overflow-hidden rounded-md drop-shadow-lg transition duration-300"><rect width="1920" height="1080" fill="#3d50e1"/><g clip-path="url(&quot;#SvgjsClipPath2695&quot;)"><g transform="matrix(-0.10022910415980696,1.1456239028055073,-1.1456239028055073,-0.10022910415980696,1605.5457967613306,-433.5044469581901)"><path d="M0,-1080C-4.123223520494672,-964.2697375323079,-3.741962987238086,-618.2771655808344,-24.73934112296803,-385.6184251938473C-45.736719258697974,-152.9596848068602,-127.00995408354437,100.28381132345308,-125.98426881437965,315.9524423219227C-124.95858354521492,531.6210733203924,-42.753182887620184,717.9503665611077,-18.585229507979648,908.3933607969705C5.5827238716608925,1098.8363550328334,15.92591321213366,1250.0093012032614,19.0234514634636,1458.6104077370996C22.12098971479354,1667.2115142709379,3.1705752439106,2043.10173462285,0,2160L 1920 2160 L 1920 -1080 Z" fill="url(&quot;#SvgjsLinearGradient2683&quot;)"/><path d="M160,-1080C179.96090267912368,-998.8374187386078,295.4909855098611,-731.6366950608101,279.765416074742,-593.0245124316468C264.0398466396229,-454.4123298024835,98.34343173343015,-374.36650230412835,65.64658338928544,-248.32690422502006C32.949735045140734,-122.28730614591176,63.78190054225311,48.931375332974056,83.58432600987376,163.21307604300293C103.38675147749441,277.49477675303183,190.7306581553211,313.90819568154046,184.46113619500937,437.36330003515315C178.19161423469765,560.8184043887658,65.92103858402352,770.8560721675319,45.967194248003494,903.9437021646789C26.013349911983465,1037.031332161826,24.948811114905162,1091.788614098142,64.73807017888919,1235.8890800180352C104.52732924287321,1379.9895459379284,268.82576032838915,1614.5280110203773,284.70274863190764,1768.546497684038C300.5797369354261,1922.5649843476988,180.78379143865126,2094.7577496140066,160,2160L 1920 2160 L 1920 -1080 Z" fill="url(&quot;#SvgjsLinearGradient2684&quot;)"/><path d="M320,-1080C301.7460470632687,-983.5288713103688,191.0618364527749,-637.1014817035867,210.47628237961223,-501.17322786221257C229.89072830644955,-365.2449740208384,418.67835460969206,-378.9488374931075,436.48667556102396,-264.43047695175517C454.29499651235585,-149.91211641040286,343.2785108097117,23.523110087232396,317.32620808760373,185.93693538590134C291.3739053654958,348.3507606845703,264.8622052345728,533.3073440151467,280.77285922837626,710.0524748402585C296.6835132221797,886.7976056653703,396.5779382391397,1068.0575075874767,412.79013205042463,1246.407720336572C429.00232586170955,1424.7579330856674,393.5110441044897,1627.8883713909258,378.0460220960856,1780.1537513348305C362.5810000876815,1932.4191312787352,329.67433701601425,2096.6922918891382,320,2160L 1920 2160 L 1920 -1080 Z" fill="url(&quot;#SvgjsLinearGradient2685&quot;)"/><path d="M480,-1080C475.60791105093085,-949.1358598151378,466.3479805000036,-550.4792955858624,453.64746630558494,-294.815158890827C440.9469521111663,-39.1510221957916,382.2715839723338,181.96606083801686,403.79691483348796,453.9848201702123C425.3222456946421,726.0035795024078,570.098937278091,1052.961533797381,582.7994514725096,1337.2973971023457C595.4999656669283,1621.6332604073104,497.13324191208494,2022.8828995170577,480,2160L 1920 2160 L 1920 -1080 Z" fill="url(&quot;#SvgjsLinearGradient2686&quot;)"/><path d="M640,-1080C635.3534857915458,-1003.3761087455341,625.0472139445731,-752.1826045989719,612.1209147492751,-620.2566524732044C599.1946155539772,-488.3307003474369,539.1837527127174,-421.1657409717841,562.4422048282123,-288.4442872453948C585.7006569437073,-155.72283351900543,735.6620422600067,37.87767442032785,751.6716274422447,176.07206988513158C767.6812126244827,314.2664653499353,687.7017189797567,395.08189901643823,658.4997159216402,540.7220855434276C629.2977128635238,686.362272070417,593.1494434062321,920.2907921527469,576.4596090935459,1049.9131890470678C559.7697747808596,1179.5355859413887,550.4280402021036,1198.2242927288985,558.3607100455228,1318.456466909353C566.2933798889419,1438.6886410898073,610.4490798283148,1631.0489786146863,624.055628154061,1771.3062341297941C637.6621764798072,1911.563489644902,637.3426046923435,2095.2177056882992,640,2160L 1920 2160 L 1920 -1080 Z" fill="url(&quot;#SvgjsLinearGradient2687&quot;)"/><path d="M800,-1080C803.0347099592711,-974.2290896647006,827.7762600822906,-633.6477803826764,818.208259755627,-445.37453798820377C808.6402594289633,-257.10129559373115,742.5841693487456,-104.57705467389462,742.5919980400183,49.63945436683599C742.599826731291,203.8559634075666,819.0948431663802,310.65610530107983,818.255231903263,479.9245162561799C817.4156206401459,649.19292721128,761.5571330894609,890.1277591652397,737.5543304613154,1065.2499200974364C713.55152783317,1240.3720810296331,663.8308045446099,1348.1991351989327,674.2384161343907,1530.65748184936C684.6460277241715,1713.1158284997873,779.0397360223984,2055.1095803082267,800,2160L 1920 2160 L 1920 -1080 Z" fill="url(&quot;#SvgjsLinearGradient2688&quot;)"/><path d="M960,-1080C957.7079139386223,-1005.5158597130865,943.3419396535826,-771.6100237269968,946.2474836317334,-633.0951582785184C949.1530276098842,-494.58029283004,959.2051745932037,-419.22702544453944,977.4332638689051,-248.9108073091293C995.6613531446066,-78.59458917371913,1049.3262465479736,209.13720251512515,1055.616019285942,388.80215053394267C1061.9057920239104,568.4670985527601,1037.7980394399492,668.9508408478501,1015.1719002967156,829.0788808037757C992.5457611534821,989.2069207597013,913.8106531002553,1198.418511521909,919.8591844265407,1349.5703902694963C925.907715752826,1500.7222690170836,1044.7729523255177,1600.918551667549,1051.4630882544277,1735.9901532892998C1058.1532241833377,1871.0617549110505,975.2438480424046,2089.3316922148833,960,2160L 1920 2160 L 1920 -1080 Z" fill="url(&quot;#SvgjsLinearGradient2689&quot;)"/><path d="M1120,-1080C1104.5739205956381,-952.6996487461336,1024.6687632532332,-593.4894938047471,1027.4435235738283,-316.1978924768015C1030.2182838944234,-38.906291148855814,1102.967880302861,322.9523779906336,1136.6485619235705,583.7496079676741C1170.32924354428,844.5468379447148,1232.3023736186803,985.8770887133876,1229.5276132980853,1248.5854873854419C1226.7528529774902,1511.2938860574961,1138.2546022163476,2008.097581230907,1120,2160L 1920 2160 L 1920 -1080 Z" fill="url(&quot;#SvgjsLinearGradient2690&quot;)"/><path d="M1280,-1080C1280.628376287708,-999.092863194239,1268.1786090902433,-747.1457817175083,1283.770257726249,-594.5571791654345C1299.3619063622546,-441.96857661336077,1387.6251224199557,-272.2951541116352,1373.5498918160336,-164.46838468755766C1359.4746612121114,-56.64161526348009,1235.6842908873045,-72.03426673856147,1199.3188741027166,52.40343737903092C1162.9534573181286,176.84114149662332,1137.6857954902575,453.714762086509,1155.357391108505,582.1578400179967C1173.0289867267525,710.6009179494845,1289.921174114861,680.2776201512967,1305.3484478122014,823.0619049679573C1320.7757215095417,965.8461897846179,1233.9012943059702,1268.1680888753772,1247.9210332925463,1438.86354891796C1261.9407722791225,1609.559008960543,1384.120387280416,1727.0452567097811,1389.4668817316583,1847.2346652234544C1394.8133761829006,1967.4240737371276,1298.2444802886098,2107.8724442039093,1280,2160L 1920 2160 L 1920 -1080 Z" fill="url(&quot;#SvgjsLinearGradient2691&quot;)"/><path d="M1440,-1080C1434.3427779611409,-1018.7816794653164,1400.9263476265328,-847.7254796951181,1406.0566677668448,-712.6900767918983C1411.186987907157,-577.6546738886784,1466.444248245126,-437.5826819727987,1470.781920841873,-269.7875825806807C1475.11959343862,-101.99248318856266,1424.2777751394212,127.68615490890122,1432.082703347328,294.08051956081C1439.887631555235,460.47488421271873,1501.772523977456,558.5196735452366,1517.6114900893142,728.578605330772C1533.4504562011723,898.6375371163074,1540.0612746953368,1172.2105928007907,1527.1165000184767,1314.4341102740225C1514.1717253416166,1456.6576277472543,1454.4622586978999,1440.9920618825004,1439.9428420281538,1581.9197101701632C1425.4234253584077,1722.847358457826,1439.990473671359,2063.6532850283606,1440,2160L 1920 2160 L 1920 -1080 Z" fill="url(&quot;#SvgjsLinearGradient2692&quot;)"/><path d="M1600,-1080C1605.012763115027,-1005.6716974372722,1631.2633001173758,-802.835690874328,1630.0765786901618,-634.0301846236334C1628.8898572629478,-465.2246783729389,1584.1652645434162,-267.70542126989676,1592.8796714367154,-67.16696249583296C1601.5940783300146,133.3714962782308,1687.548350402812,375.45975921751665,1682.3630200499572,569.2005680207492C1677.1776896971023,762.9413768239817,1572.7192996237677,937.3342717178941,1561.7676893195867,1095.2778903235626C1550.8160790154056,1253.221508929231,1610.2813064448023,1339.408594708687,1616.6533582248712,1516.8622796547597C1623.02541000494,1694.3159646008326,1602.7755597041453,2052.81037994246,1600,2160L 1920 2160 L 1920 -1080 Z" fill="url(&quot;#SvgjsLinearGradient2693&quot;)"/><path d="M1760,-1080C1754.8128189492295,-992.8076347358806,1722.8668848179207,-705.1129324180638,1728.8769136953763,-556.8458084152832C1734.886942572832,-408.5786844125025,1773.007908475021,-336.8422066732286,1796.0601732647333,-190.39725598331634C1819.1124380544456,-43.952305293404095,1883.4753697327071,167.64471982107312,1867.19050243365,321.82389572419027C1850.9056351345928,476.0030716273074,1704.118360381598,597.294985650826,1698.3509694703898,734.6777994353865C1692.5835785591817,872.0606132199471,1839.0966155516069,987.0011901104301,1832.5861569664007,1146.1207784315532C1826.0756983811946,1305.2403667526762,1671.385910786886,1520.4154591007168,1659.2882179591525,1689.3953293621246C1647.190525131419,1858.3751996235324,1743.214702993192,2081.565888227021,1760,2160L 1920 2160 L 1920 -1080 Z" fill="url(&quot;#SvgjsLinearGradient2694&quot;)"/></g></g><defs><linearGradient x1="0.1" y1="0" x2="0" y2="1" id="SvgjsLinearGradient2683"><stop stop-color="#3d50e1" offset="0"/><stop stop-color="#3d6be1" offset="0"/></linearGradient><linearGradient x1="0.1" y1="0" x2="0" y2="1" id="SvgjsLinearGradient2684"><stop stop-color="#5565e5" offset="0"/><stop stop-color="#557de5" offset="0.08333333333333333"/></linearGradient><linearGradient x1="0.1" y1="0" x2="0" y2="1" id="SvgjsLinearGradient2685"><stop stop-color="#6c7be8" offset="0"/><stop stop-color="#6c90e8" offset="0.16666666666666666"/></linearGradient><linearGradient x1="0.1" y1="0" x2="0" y2="1" id="SvgjsLinearGradient2686"><stop stop-color="#8490ec" offset="0"/><stop stop-color="#84a1ec" offset="0.25"/></linearGradient><linearGradient x1="0.1" y1="0" x2="0" y2="1" id="SvgjsLinearGradient2687"><stop stop-color="#9ca5f0" offset="0"/><stop stop-color="#9cb3f0" offset="0.3333333333333333"/></linearGradient><linearGradient x1="0.1" y1="0" x2="0" y2="1" id="SvgjsLinearGradient2688"><stop stop-color="#b3bbf3" offset="0"/><stop stop-color="#b3c6f3" offset="0.4166666666666667"/></linearGradient><linearGradient x1="0.1" y1="0" x2="0" y2="1" id="SvgjsLinearGradient2689"><stop stop-color="#cbd0f7" offset="0"/><stop stop-color="#cbd7f7" offset="0.5"/></linearGradient><linearGradient x1="0.1" y1="0" x2="0" y2="1" id="SvgjsLinearGradient2690"><stop stop-color="#e3e6fb" offset="0"/><stop stop-color="#e3eafb" offset="0.5833333333333334"/></linearGradient><linearGradient x1="0.1" y1="0" x2="0" y2="1" id="SvgjsLinearGradient2691"><stop stop-color="#fbfbfe" offset="0"/><stop stop-color="#fbfbfe" offset="0.6666666666666666"/></linearGradient><linearGradient x1="0.1" y1="0" x2="0" y2="1" id="SvgjsLinearGradient2692"><stop stop-color="#ffffff" offset="0"/><stop stop-color="#ffffff" offset="0.75"/></linearGradient><linearGradient x1="0.1" y1="0" x2="0" y2="1" id="SvgjsLinearGradient2693"><stop stop-color="#ffffff" offset="0"/><stop stop-color="#ffffff" offset="0.8333333333333334"/></linearGradient><linearGradient x1="0.1" y1="0" x2="0" y2="1" id="SvgjsLinearGradient2694"><stop stop-color="#ffffff" offset="0"/><stop stop-color="#ffffff" offset="0.9166666666666666"/></linearGradient><clipPath id="SvgjsClipPath2695"><rect width="1920" height="1080"/></clipPath></defs></svg>